<svg xmlns="http://www.w3.org/2000/svg" viewBox="0 0 1766.3 217.15"><defs><style>.cls-1{fill:#010f98;}</style></defs><g id="Layer_2" data-name="Layer 2"><g id="Layer_1-2" data-name="Layer 1"><path class="cls-1" d="M.44,179.88l36-80.33c7-14.79,12.43-27.36,12.43-45.11V40.09c0-4.14-1.33-8-5.63-8S37,35.35,37,40.24v34H0V44.38C0,15.83,16.71.15,43.79.15c26.77,0,42.6,14.79,42.6,45.7V57.54c0,24.85-7.69,42.16-19.23,63.17L36.39,182.09H87.28v32.55H.44Z"/><path class="cls-1" d="M95.41,175.14V42c0-24.41,15.38-42,42.9-42s43,16.71,43,42V175.14c0,25.74-14.2,41.87-43,41.87S95.41,200.88,95.41,175.14Zm42.9,10.8c4.29,0,5.47-2.81,5.47-6.8V38c0-4-1.78-6.81-5.47-6.81S133,34,133,38V179.14C133,183.13,134.61,185.94,138.31,185.94Z"/><path class="cls-1" d="M190.37,179.88l35.95-80.33c7-14.79,12.42-27.36,12.42-45.11V40.09c0-4.14-1.33-8-5.62-8s-6.21,3.25-6.21,8.14v34h-37V44.38c0-28.55,16.71-44.23,43.78-44.23,26.78,0,42.61,14.79,42.61,45.7V57.54c0,24.85-7.7,42.16-19.23,63.17l-30.77,61.38H277.2v32.55H190.37Z"/><path class="cls-1" d="M284,179.88,320,99.55c6.95-14.79,12.42-27.36,12.42-45.11V40.09c0-4.14-1.32-8-5.62-8s-6.21,3.25-6.21,8.14v34h-37V44.38c0-28.55,16.71-44.23,43.79-44.23,26.77,0,42.6,14.79,42.6,45.7V57.54c0,24.85-7.7,42.16-19.23,63.17L320,182.09h50.89v32.55H284Z"/><path class="cls-1" d="M407.66,177.66V2.51h37.28V178c0,3.85,2.07,6.81,5.92,6.81s5.91-3,5.91-6.81V2.51h37.28V177.66c0,24.26-14.5,39.35-43.19,39.35S407.66,201.92,407.66,177.66Z"/><path class="cls-1" d="M503.81,172.92V44.23C503.81,17.6,519.64,0,547.89,0s44.23,16.71,44.23,44.23V172.92c0,28.11-14.49,44.23-44.23,44.23S503.81,201,503.81,172.92Zm44.08,12.28c3.85,0,5.47-2.66,5.47-6.65V38.61c0-3.7-1.62-6.81-5.47-6.81s-5.47,2.81-5.47,6.81V178.55C542.42,182.54,544.05,185.2,547.89,185.2Z"/><path class="cls-1" d="M599.51,175.29V139.94h37.28v35.35c0,5.62,2.07,8.58,5.77,8.58,4.29,0,6.06-3.85,6.06-9.91V153c0-12.27-2.66-17.45-8.28-23.22l-21.6-22.19c-13.31-13.61-19.08-25.74-19.08-45.86V46.15C599.66,17,616.67,0,644,0c24.7,0,42,15.09,42,44.23v24.7h-37V41.42c0-5.18-1.63-8.28-5.48-8.28s-5.91,2.66-5.91,9.31V57.24c0,8.88,1.62,14.21,7.54,20.57l21,22.19c12.42,13,20.11,24.11,20.11,49.11v21.74c0,30-15.38,46.3-44.08,46.3C614.3,217.15,599.51,200.29,599.51,175.29Z"/><path class="cls-1" d="M717.4,2.51h37.43L761,177.8h.3L767.25,2.51h36.84l-14.5,212.13H731.75Z"/><path class="cls-1" d="M810.74,2.51h42.6c29.14,0,43.94,15.09,43.94,40.83V173.51c0,26.63-14.65,41.13-47.63,41.13H810.74Zm39,179.73c6.36,0,9.32-2.51,9.32-10.35V44.53c0-7.25-3.4-9.62-9.32-9.62h-1.92V182.24Z"/><path class="cls-1" d="M935.14,175.44V42.75C935.14,17,951.41,0,980.11,0c27.51,0,43.49,16.57,43.49,41.42V73.67H985.43V39.2c0-4.29-1.77-7.4-5.92-7.4s-5.91,3.11-5.91,7.4V175.14c0,7.1,4,9.47,9.32,9.47a12.09,12.09,0,0,0,5.62-1.33V131.8H978.48V100.59H1024V206.21c-8.58,6.06-25.15,10.8-41,10.8C951.41,217,935.14,202.66,935.14,175.44Z"/><path class="cls-1" d="M1034.1,2.51h44.52c29.58,0,42.9,12.58,42.9,42.75V64.05c0,25.89-10.21,37.13-25.74,41,20.41,3,25.29,10.51,25.29,26.93v82.69H1083.8v-83c0-8.13-2.67-11.09-12.58-11.09v94.08H1034.1Zm38.46,87.87c8.43,0,11.53-6.06,11.53-17V46c0-9.32-3.25-13.46-11.68-13.46h-1.19V90.38Z"/><path class="cls-1" d="M1144.14,2.51h57.55L1222,214.64h-38.61l-3.11-51.33h-13.91l-2.51,51.33H1126.1Zm34.47,128.7L1173,35.8h-.29l-4.89,95.41Z"/><path class="cls-1" d="M1227,2.51h42.6c29.14,0,43.93,15.09,43.93,40.83V173.51c0,26.63-14.64,41.13-47.63,41.13H1227Zm39,179.73c6.36,0,9.32-2.51,9.32-10.35V44.53c0-7.25-3.4-9.62-9.32-9.62h-1.92V182.24Z"/><path class="cls-1" d="M1349.6,175.29V139.94h37.28v35.35c0,5.62,2.07,8.58,5.77,8.58,4.29,0,6.07-3.85,6.07-9.91V153c0-12.27-2.67-17.45-8.29-23.22l-21.59-22.19c-13.32-13.61-19.09-25.74-19.09-45.86V46.15c0-29.14,17-46.15,44.38-46.15,24.7,0,42,15.09,42,44.23v24.7h-37V41.42c0-5.18-1.63-8.28-5.47-8.28-4,0-5.92,2.66-5.92,9.31V57.24c0,8.88,1.63,14.21,7.54,20.57l21,22.19c12.42,13,20.12,24.11,20.12,49.11v21.74c0,30-15.39,46.3-44.09,46.3C1364.4,217.15,1349.6,200.29,1349.6,175.29Z"/><path class="cls-1" d="M1444.57,2.51h37.13V87.87h12.13V2.51h37V214.64h-37V120.41H1481.7v94.23h-37.13Z"/><path class="cls-1" d="M1541,172.92V44.23C1541,17.6,1556.84,0,1585.09,0c28.4,0,44.23,16.71,44.23,44.23V172.92c0,28.11-14.49,44.23-44.23,44.23S1541,201,1541,172.92Zm44.08,12.28c3.85,0,5.47-2.66,5.47-6.65V38.61c0-3.7-1.62-6.81-5.47-6.81s-5.47,2.81-5.47,6.81V178.55C1579.62,182.54,1581.25,185.2,1585.09,185.2Z"/><path class="cls-1" d="M1634.64,2.51h34.47l4.29,155.18h.29l8-155.18h38.46l7.55,156.21h.29l4.74-156.21h33.58l-13.47,212.13h-45.41l-7.25-152.22h-.29l-6.51,152.22H1648.1Z"/></g></g></svg>